<svg xmlns="http://www.w3.org/2000/svg" xmlns:xlink="http://www.w3.org/1999/xlink" width="800" height="720"><g transform="translate(0 0)"><path d="M0 0h800v720H0z" fill="#f2f2f2"/><path d="M90 63.75h200v132.5H90z" fill="#fff"/><path d="M90 63.75h200v132.5H90zM90 103.75h200" stroke="#3d4752" stroke-width="2" fill="none"/><use xlink:href="#a" transform="matrix(1,0,0,1,100,63.75) translate(10 28.175)"/><use xlink:href="#b" transform="matrix(1,0,0,1,100,63.75) translate(78.958 28.175)"/><use xlink:href="#c" transform="matrix(1,0,0,1,95,106.25) translate(10 20.675)"/><use xlink:href="#d" transform="matrix(1,0,0,1,95,106.25) translate(47.044 20.675)"/><use xlink:href="#c" transform="matrix(1,0,0,1,95,136.25) translate(10 20.675)"/><use xlink:href="#e" transform="matrix(1,0,0,1,95,136.25) translate(47.044 20.675)"/><use xlink:href="#f" transform="matrix(1,0,0,1,95,166.25) translate(10 20.675)"/><use xlink:href="#g" transform="matrix(1,0,0,1,95,166.25) translate(45.76599999999999 20.675)"/><path d="M90 283.75h200v132.5H90z" fill="#fff"/><path d="M90 283.75h200v132.5H90zM90 323.75h200" stroke="#3d4752" stroke-width="2" fill="none"/><use xlink:href="#h" transform="matrix(1,0,0,1,100,283.75) translate(10 28.175)"/><use xlink:href="#i" transform="matrix(1,0,0,1,95,326.25) translate(10 20.675)"/><use xlink:href="#j" transform="matrix(1,0,0,1,95,326.25) translate(77.53599999999999 20.675)"/><use xlink:href="#i" transform="matrix(1,0,0,1,95,356.25) translate(10 20.675)"/><use xlink:href="#d" transform="matrix(1,0,0,1,95,356.25) translate(77.53599999999999 20.675)"/><use xlink:href="#k" transform="matrix(1,0,0,1,95,386.25) translate(10 20.675)"/><use xlink:href="#l" transform="matrix(1,0,0,1,95,386.25) translate(58.09599999999999 20.675)"/><path d="M510 124h200v72.5H510z" fill="#fff"/><path d="M510 124h200v72.5H510zM510 164h200" stroke="#3d4752" stroke-width="2" fill="none"/><use xlink:href="#m" transform="matrix(1,0,0,1,520,124) translate(10 28.175)"/><use xlink:href="#n" transform="matrix(1,0,0,1,520,124) translate(77.15799999999999 28.175)"/><use xlink:href="#o" transform="matrix(1,0,0,1,515,166.5) translate(10 20.675)"/><use xlink:href="#d" transform="matrix(1,0,0,1,515,166.5) translate(55.611999999999995 20.675)"/><path d="M190 196.25v87.5" stroke="#2ba9e0" stroke-width="2" fill="none"/><path d="M200.9 196.7L190 218.5l-10.9-21.8.9-.45h1.12L190 214l8.88-17.75H200z" fill="#2ba9e0"/><path d="M200 217.25h-20v-2h20z" fill="#2ba9e0"/><path d="M290 373.04h109.5v-203.6H509" stroke="#2ba9e0" stroke-width="2" fill="none"/><path d="M312.24 373.04l-21.8 10.9-.44-.9v-1.1l17.76-8.9-17.76-8.88v-1.12l.45-.9z" fill="#2ba9e0"/><path d="M311 383.04h-2v-20h2zM509.45 160.34l-18.2 9.1 18.2 9.1-.9 1.8-21.8-10.9 21.8-10.9z" fill="#2ba9e0"/><path d="M490 179.44h-2v-20h2z" fill="#2ba9e0"/><path d="M510 284h200v132.5H510z" fill="#fff"/><path d="M510 284h200v132.5H510zM510 324h200" stroke="#3d4752" stroke-width="2" fill="none"/><use xlink:href="#p" transform="matrix(1,0,0,1,520,284) translate(10 28.175)"/><use xlink:href="#o" transform="matrix(1,0,0,1,515,326.5) translate(10 20.675)"/><use xlink:href="#d" transform="matrix(1,0,0,1,515,326.5) translate(55.611999999999995 20.675)"/><use xlink:href="#o" transform="matrix(1,0,0,1,515,356.5) translate(10 20.675)"/><use xlink:href="#e" transform="matrix(1,0,0,1,515,356.5) translate(55.611999999999995 20.675)"/><use xlink:href="#o" transform="matrix(1,0,0,1,515,386.5) translate(10 20.675)"/><use xlink:href="#j" transform="matrix(1,0,0,1,515,386.5) translate(55.611999999999995 20.675)"/><path d="M610 196.5v86.45" stroke="#2ba9e0" stroke-width="2" fill="none"/><path d="M620.9 282.5l-1.8.9-9.1-18.2-9.1 18.2-1.8-.9 10.9-21.78z" fill="#2ba9e0"/><path d="M620 263.95h-20v-2h20z" fill="#2ba9e0"/><path d="M90 523.75h200v72.5H90z" fill="#fff"/><path d="M90 523.75h200v72.5H90zM90 563.75h200" stroke="#3d4752" stroke-width="2" fill="none"/><use xlink:href="#m" transform="matrix(1,0,0,1,100,523.75) translate(10 28.175)"/><use xlink:href="#q" transform="matrix(1,0,0,1,100,523.75) translate(77.15799999999999 28.175)"/><use xlink:href="#r" transform="matrix(1,0,0,1,95,566.25) translate(10 20.675)"/><use xlink:href="#d" transform="matrix(1,0,0,1,95,566.25) translate(82.252 20.675)"/><path d="M510 523.75h200v132.5H510z" fill="#fff"/><path d="M510 523.75h200v132.5H510zM510 563.75h200" stroke="#3d4752" stroke-width="2" fill="none"/><g><use xlink:href="#s" transform="matrix(1,0,0,1,520,523.75) translate(10 28.175)"/></g><g><use xlink:href="#r" transform="matrix(1,0,0,1,515,566.25) translate(10 20.675)"/><use xlink:href="#d" transform="matrix(1,0,0,1,515,566.25) translate(82.252 20.675)"/></g><g><use xlink:href="#t" transform="matrix(1,0,0,1,515,596.25) translate(10 20.675)"/><use xlink:href="#u" transform="matrix(1,0,0,1,515,596.25) translate(67.204 20.675)"/><use xlink:href="#d" transform="matrix(1,0,0,1,515,596.25) translate(139.456 20.675)"/></g><g><use xlink:href="#r" transform="matrix(1,0,0,1,515,626.25) translate(10 20.675)"/><use xlink:href="#j" transform="matrix(1,0,0,1,515,626.25) translate(82.252 20.675)"/></g><path d="M190 416.25v106.47" stroke="#2ba9e0" stroke-width="2" fill="none"/><path d="M200.9 522.27l-1.8.9-9.1-18.2-9.1 18.2-1.8-.9L190 500.5z" fill="#2ba9e0"/><path d="M200 503.72h-20v-2h20z" fill="#2ba9e0"/><path d="M509 544.46H290" stroke="#2ba9e0" stroke-width="2" fill="none"/><path d="M500 554.46h-2v-20h2zM490 554.46h-2v-20h2z" fill="#2ba9e0"/><defs><path fill="#3d4752" d="M51-64l268-628h82L651-65l79 39V0H475v-26l80-39-62-165c-95 1-195-3-286 2L146-65l80 39V0H-27v-26zm413-238c-38-101-82-196-112-305-30 109-76 204-115 305h227" id="v"/><path fill="#3d4752" d="M324 11c-66 0-101-13-136-46v229l110 33v26H20v-26l88-33v-614l-88-27v-24l168-41v77c37-38 77-75 149-74 145 2 210 98 210 243 0 155-67 277-223 277zm-6-61c110 0 142-104 142-214 0-101-41-181-141-184-65-2-102 52-128 94l1 240c23 39 70 64 126 64" id="w"/><path fill="#3d4752" d="M233-514c87 3 156 45 156 132v302l83 27v23L310 12v-71c-35 38-70 69-138 70C85 12 27-46 30-134c4-141 149-158 281-173-1-16 1-41 0-60-1-92-140-105-204-56l-36 86H45c1-38-1-78 1-114 49-38 100-66 187-63zm77 261c-95 7-197 18-199 118-1 55 31 89 86 87 57-2 84-40 113-72v-133" id="x"/><path fill="#3d4752" d="M316-434c-70 6-120 46-120 120v251l106 37V0H25v-26l88-36v-362l-92-27v-23l175-41v104c31-55 97-121 183-88v151h-26" id="y"/><path fill="#3d4752" d="M252-509c149 0 208 103 203 259H117c-1 108 29 194 135 194 63 0 113-26 147-60l44 43c-48 46-97 84-184 84C102 11 35-91 35-248c0-147 71-261 217-261zm126 200c19-124-147-176-220-93-20 23-30 59-37 93h257" id="z"/><path fill="#3d4752" d="M25-711l178-41v689l94 37V0H31v-26l88-37v-598l-94-27v-23" id="A"/><g id="a"><use transform="matrix(0.018,0,0,0.018,0,0)" xlink:href="#v"/><use transform="matrix(0.018,0,0,0.018,12.905999999999999,0)" xlink:href="#w"/><use transform="matrix(0.018,0,0,0.018,23.381999999999998,0)" xlink:href="#w"/><use transform="matrix(0.018,0,0,0.018,33.858,0)" xlink:href="#x"/><use transform="matrix(0.018,0,0,0.018,42.534,0)" xlink:href="#y"/><use transform="matrix(0.018,0,0,0.018,49.571999999999996,0)" xlink:href="#z"/><use transform="matrix(0.018,0,0,0.018,58.48199999999999,0)" xlink:href="#A"/></g><path fill="#3d4752" d="M270-703c81-2 142 16 187 48v159h-26l-44-113c-29-15-58-27-110-26-74 3-130 32-130 106 0 126 160 125 239 187 44 35 87 78 84 156C466-56 380 8 250 11 165 13 102-9 55-43v-156h26l41 115c30 18 67 27 121 25 77-3 137-36 137-115 0-130-158-131-238-194-44-35-87-78-84-158 5-120 91-174 212-177" id="B"/><path fill="#3d4752" d="M25-481l177-41v459l83 37V0H31v-26l88-37v-368l-94-27v-23zm200-200c0 37-21 56-62 56-42 0-63-18-63-54 0-37 21-55 63-55 41 0 62 18 62 53" id="C"/><path fill="#3d4752" d="M377-449c-80 7-173 3-259 4l-37 88H55v-156h463C405-364 299-207 180-64c81-5 172-2 258-3l37-88h26V0H40c113-149 219-305 337-449" id="D"/><g id="b"><use transform="matrix(0.018,0,0,0.018,0,0)" xlink:href="#B"/><use transform="matrix(0.018,0,0,0.018,9.45,0)" xlink:href="#C"/><use transform="matrix(0.018,0,0,0.018,14.85,0)" xlink:href="#D"/><use transform="matrix(0.018,0,0,0.018,24.983999999999995,0)" xlink:href="#z"/></g><path fill="#3d4752" d="M229-509c47 0 105 15 135 34v127h-26l-37-86c-64-27-173-19-165 61 8 84 122 76 177 120 33 26 64 57 62 116-3 100-76 148-174 148C136 11 92-5 50-31v-127h26l36 87c55 34 183 31 177-55-7-93-117-87-177-128-34-23-63-52-61-109 3-102 78-146 178-146" id="E"/><g id="c"><use transform="matrix(0.018,0,0,0.018,0,0)" xlink:href="#E"/><use transform="matrix(0.018,0,0,0.018,7.6499999999999995,0)" xlink:href="#C"/><use transform="matrix(0.018,0,0,0.018,13.049999999999999,0)" xlink:href="#D"/><use transform="matrix(0.018,0,0,0.018,23.183999999999997,0)" xlink:href="#z"/></g><path fill="#3d4752" d="M255-509c65 0 107 14 141 47v-197l-94-28v-22c58-14 117-27 174-42v677l83 26v22L396 15c0-21-1-54 0-79-36 39-79 75-151 75C100 11 35-86 35-231c0-155 64-278 220-278zm141 125c-22-39-80-64-135-64-109 0-139 105-139 215 0 100 41 183 141 183 70 0 104-49 133-95v-239" id="F"/><g id="d"><use transform="matrix(0.018,0,0,0.018,0,0)" xlink:href="#C"/><use transform="matrix(0.018,0,0,0.018,5.3999999999999995,0)" xlink:href="#F"/></g><path fill="#3d4752" d="M173-486c82-41 198-28 258 29v121h-26l-37-87c-26-17-56-25-95-25-109 0-151 95-151 205 0 107 52 191 158 191 55 0 83-24 113-54l47 42c-40 40-91 76-173 75C110 8 35-93 35-243c0-118 57-202 138-243" id="G"/><path fill="#3d4752" d="M276-509c158 0 231 103 231 260 0 153-81 260-233 260C115 11 35-90 35-249c0-153 87-260 241-260zm-1 459c107 0 145-91 145-199s-37-199-145-199-153 91-153 199c0 109 43 199 153 199" id="H"/><g id="e"><use transform="matrix(0.018,0,0,0.018,0,0)" xlink:href="#G"/><use transform="matrix(0.018,0,0,0.018,8.37,0)" xlink:href="#H"/><use transform="matrix(0.018,0,0,0.018,18.125999999999998,0)" xlink:href="#F"/><use transform="matrix(0.018,0,0,0.018,28.367999999999995,0)" xlink:href="#z"/></g><path fill="#3d4752" d="M337-34c-33 20-79 45-128 45-81 1-119-46-119-127v-315H4v-37l87-30v-131l83-30v161h145v67H173v306c1 40 13 70 55 70 28 0 64-17 80-30" id="I"/><g id="f"><use transform="matrix(0.018,0,0,0.018,0,0)" xlink:href="#E"/><use transform="matrix(0.018,0,0,0.018,7.6499999999999995,0)" xlink:href="#H"/><use transform="matrix(0.018,0,0,0.018,17.406,0)" xlink:href="#y"/><use transform="matrix(0.018,0,0,0.018,24.659999999999997,0)" xlink:href="#I"/></g><g id="g"><use transform="matrix(0.018,0,0,0.018,0,0)" xlink:href="#H"/><use transform="matrix(0.018,0,0,0.018,9.755999999999998,0)" xlink:href="#y"/><use transform="matrix(0.018,0,0,0.018,17.009999999999998,0)" xlink:href="#F"/><use transform="matrix(0.018,0,0,0.018,27.251999999999995,0)" xlink:href="#z"/><use transform="matrix(0.018,0,0,0.018,36.16199999999999,0)" xlink:href="#y"/></g><path fill="#3d4752" d="M321-692c143-6 225 50 225 190 0 186-148 226-344 214v225l88 37V0H24v-26l89-37v-566l-88-36v-26zm135 192c0-137-121-141-254-131v278c142 8 254-7 254-147" id="J"/><path fill="#3d4752" d="M250 11C150 11 92-32 92-134v-294L5-454v-24l171-40v381c0 54 35 77 87 77 74 0 108-53 145-95v-273l-88-26v-24l168-40v436l83 27v23L408 10v-86c-38 42-83 87-158 87" id="K"/><g id="h"><use transform="matrix(0.018,0,0,0.018,0,0)" xlink:href="#J"/><use transform="matrix(0.018,0,0,0.018,10.097999999999999,0)" xlink:href="#y"/><use transform="matrix(0.018,0,0,0.018,17.136,0)" xlink:href="#H"/><use transform="matrix(0.018,0,0,0.018,26.891999999999992,0)" xlink:href="#F"/><use transform="matrix(0.018,0,0,0.018,37.134,0)" xlink:href="#K"/><use transform="matrix(0.018,0,0,0.018,47.681999999999995,0)" xlink:href="#G"/><use transform="matrix(0.018,0,0,0.018,56.05199999999999,0)" xlink:href="#I"/></g><g id="i"><use transform="matrix(0.018,0,0,0.018,0,0)" xlink:href="#w"/><use transform="matrix(0.018,0,0,0.018,10.475999999999999,0)" xlink:href="#y"/><use transform="matrix(0.018,0,0,0.018,17.514,0)" xlink:href="#H"/><use transform="matrix(0.018,0,0,0.018,27.27,0)" xlink:href="#F"/><use transform="matrix(0.018,0,0,0.018,37.512,0)" xlink:href="#K"/><use transform="matrix(0.018,0,0,0.018,48.059999999999995,0)" xlink:href="#G"/><use transform="matrix(0.018,0,0,0.018,56.42999999999999,0)" xlink:href="#I"/></g><path fill="#3d4752" d="M338-438c-74 0-103 54-140 95v280l78 37V0H26v-26l88-37v-360l-93-27v-23l177-41v91c34-39 85-86 153-86 100 1 162 43 162 145v301l88 37V0H346v-26l83-37v-298c-1-54-38-77-91-77" id="L"/><path fill="#3d4752" d="M330-441c-71 2-99 56-135 95v283l83 37V0H27v-26l87-36v-361l-93-27v-23l174-41v90c37-40 87-85 159-85 64 1 125 34 134 93 42-42 86-91 165-93 99-3 146 54 145 151v295l89 37V0H632v-26l82-36v-300c1-48-32-81-80-79-71 4-99 57-137 97l1 281 83 37V0H338v-26l76-36v-299c1-48-37-82-84-80" id="M"/><g id="j"><use transform="matrix(0.018,0,0,0.018,0,0)" xlink:href="#L"/><use transform="matrix(0.018,0,0,0.018,10.998,0)" xlink:href="#x"/><use transform="matrix(0.018,0,0,0.018,19.674,0)" xlink:href="#M"/><use transform="matrix(0.018,0,0,0.018,35.81999999999999,0)" xlink:href="#z"/></g><path fill="#3d4752" d="M343-438c-73 0-104 54-141 95v280l78 37V0H30v-26l88-37v-600l-93-27v-23l177-41v331c34-39 86-86 154-86 100 1 161 43 161 145v301l88 37V0H350v-26l83-37v-298c-1-54-38-77-90-77" id="N"/><g id="k"><use transform="matrix(0.018,0,0,0.018,0,0)" xlink:href="#H"/><use transform="matrix(0.018,0,0,0.018,9.755999999999998,0)" xlink:href="#I"/><use transform="matrix(0.018,0,0,0.018,15.911999999999999,0)" xlink:href="#N"/><use transform="matrix(0.018,0,0,0.018,26.982,0)" xlink:href="#z"/><use transform="matrix(0.018,0,0,0.018,35.891999999999996,0)" xlink:href="#y"/></g><g id="l"><use transform="matrix(0.018,0,0,0.018,0,0)" xlink:href="#F"/><use transform="matrix(0.018,0,0,0.018,10.241999999999999,0)" xlink:href="#x"/><use transform="matrix(0.018,0,0,0.018,18.918,0)" xlink:href="#I"/><use transform="matrix(0.018,0,0,0.018,25.073999999999998,0)" xlink:href="#x"/></g><g id="m"><use transform="matrix(0.018,0,0,0.018,0,0)" xlink:href="#J"/><use transform="matrix(0.018,0,0,0.018,10.097999999999999,0)" xlink:href="#y"/><use transform="matrix(0.018,0,0,0.018,17.136,0)" xlink:href="#H"/><use transform="matrix(0.018,0,0,0.018,26.891999999999992,0)" xlink:href="#F"/><use transform="matrix(0.018,0,0,0.018,37.134,0)" xlink:href="#K"/><use transform="matrix(0.018,0,0,0.018,47.681999999999995,0)" xlink:href="#G"/><use transform="matrix(0.018,0,0,0.018,56.05199999999999,0)" xlink:href="#I"/></g><path fill="#3d4752" d="M132-342c0 173 96 276 269 282 42 1 59-9 91-19l63-127h26L568-41c-55 26-100 52-177 52C176 11 40-119 40-336c0-172 87-283 210-339 92-42 242-34 324 6 2 52 0 118 1 175h-28l-48-128c-31-8-70-11-110-11-170 0-257 121-257 291" id="O"/><g id="n"><use transform="matrix(0.018,0,0,0.018,0,0)" xlink:href="#O"/><use transform="matrix(0.018,0,0,0.018,11.088,0)" xlink:href="#H"/><use transform="matrix(0.018,0,0,0.018,20.843999999999998,0)" xlink:href="#A"/><use transform="matrix(0.018,0,0,0.018,26.369999999999997,0)" xlink:href="#H"/><use transform="matrix(0.018,0,0,0.018,36.126,0)" xlink:href="#y"/><use transform="matrix(0.018,0,0,0.018,43.379999999999995,0)" xlink:href="#E"/></g><g id="o"><use transform="matrix(0.018,0,0,0.018,0,0)" xlink:href="#G"/><use transform="matrix(0.018,0,0,0.018,8.37,0)" xlink:href="#H"/><use transform="matrix(0.018,0,0,0.018,18.125999999999998,0)" xlink:href="#A"/><use transform="matrix(0.018,0,0,0.018,23.651999999999997,0)" xlink:href="#H"/><use transform="matrix(0.018,0,0,0.018,33.407999999999994,0)" xlink:href="#y"/></g><g id="p"><use transform="matrix(0.018,0,0,0.018,0,0)" xlink:href="#O"/><use transform="matrix(0.018,0,0,0.018,11.088,0)" xlink:href="#H"/><use transform="matrix(0.018,0,0,0.018,20.843999999999998,0)" xlink:href="#A"/><use transform="matrix(0.018,0,0,0.018,26.369999999999997,0)" xlink:href="#H"/><use transform="matrix(0.018,0,0,0.018,36.126,0)" xlink:href="#y"/></g><path fill="#3d4752" d="M171-186c-28 9-72 68-16 82C280-73 468-83 468 67c0 156-143 209-304 189-82-10-142-52-142-145C22 27 92-8 149-37 93-44 7-71 46-139c18-31 57-50 88-68-72-42-81-200-12-260 44-38 127-63 198-37l158-15v34l-83 38c32 34 44 118 23 175-31 81-147 125-247 86zm38 159C146-1 71 69 114 158c30 63 162 55 218 18 29-19 55-47 51-93-7-88-92-94-174-110zm-29-235c60 75 184 20 169-81-9-64-29-114-99-116-98-3-122 132-70 197" id="P"/><g id="q"><use transform="matrix(0.018,0,0,0.018,0,0)" xlink:href="#O"/><use transform="matrix(0.018,0,0,0.018,11.088,0)" xlink:href="#x"/><use transform="matrix(0.018,0,0,0.018,19.764,0)" xlink:href="#I"/><use transform="matrix(0.018,0,0,0.018,25.919999999999998,0)" xlink:href="#z"/><use transform="matrix(0.018,0,0,0.018,34.83,0)" xlink:href="#P"/><use transform="matrix(0.018,0,0,0.018,43.434,0)" xlink:href="#H"/><use transform="matrix(0.018,0,0,0.018,53.19,0)" xlink:href="#y"/><use transform="matrix(0.018,0,0,0.018,60.443999999999996,0)" xlink:href="#C"/><use transform="matrix(0.018,0,0,0.018,65.844,0)" xlink:href="#z"/><use transform="matrix(0.018,0,0,0.018,74.75399999999999,0)" xlink:href="#E"/></g><path fill="#3d4752" d="M144-459c47 125 101 243 139 377 35-130 83-246 123-370l-69-35v-26h210v26l-61 35C419-263 339-36 271 135c-33 87-88 133-212 123v-59c68 6 106-10 127-60 18-42 35-96 50-140L54-459l-64-28v-26h227v26" id="Q"/><g id="r"><use transform="matrix(0.018,0,0,0.018,0,0)" xlink:href="#G"/><use transform="matrix(0.018,0,0,0.018,8.37,0)" xlink:href="#x"/><use transform="matrix(0.018,0,0,0.018,17.046,0)" xlink:href="#I"/><use transform="matrix(0.018,0,0,0.018,23.201999999999998,0)" xlink:href="#z"/><use transform="matrix(0.018,0,0,0.018,32.111999999999995,0)" xlink:href="#P"/><use transform="matrix(0.018,0,0,0.018,40.715999999999994,0)" xlink:href="#H"/><use transform="matrix(0.018,0,0,0.018,50.471999999999994,0)" xlink:href="#y"/><use transform="matrix(0.018,0,0,0.018,57.726,0)" xlink:href="#Q"/></g><g id="s"><use transform="matrix(0.018,0,0,0.018,0,0)" xlink:href="#O"/><use transform="matrix(0.018,0,0,0.018,11.088,0)" xlink:href="#x"/><use transform="matrix(0.018,0,0,0.018,19.764,0)" xlink:href="#I"/><use transform="matrix(0.018,0,0,0.018,25.919999999999998,0)" xlink:href="#z"/><use transform="matrix(0.018,0,0,0.018,34.83,0)" xlink:href="#P"/><use transform="matrix(0.018,0,0,0.018,43.434,0)" xlink:href="#H"/><use transform="matrix(0.018,0,0,0.018,53.19,0)" xlink:href="#y"/><use transform="matrix(0.018,0,0,0.018,60.443999999999996,0)" xlink:href="#C"/><use transform="matrix(0.018,0,0,0.018,65.844,0)" xlink:href="#z"/><use transform="matrix(0.018,0,0,0.018,74.75399999999999,0)" xlink:href="#E"/></g><g id="t"><use transform="matrix(0.018,0,0,0.018,0,0)" xlink:href="#w"/><use transform="matrix(0.018,0,0,0.018,10.475999999999999,0)" xlink:href="#x"/><use transform="matrix(0.018,0,0,0.018,19.152,0)" xlink:href="#y"/><use transform="matrix(0.018,0,0,0.018,26.189999999999998,0)" xlink:href="#z"/><use transform="matrix(0.018,0,0,0.018,35.099999999999994,0)" xlink:href="#L"/><use transform="matrix(0.018,0,0,0.018,46.09799999999999,0)" xlink:href="#I"/></g><g id="u"><use transform="matrix(0.018,0,0,0.018,0,0)" xlink:href="#G"/><use transform="matrix(0.018,0,0,0.018,8.37,0)" xlink:href="#x"/><use transform="matrix(0.018,0,0,0.018,17.046,0)" xlink:href="#I"/><use transform="matrix(0.018,0,0,0.018,23.201999999999998,0)" xlink:href="#z"/><use transform="matrix(0.018,0,0,0.018,32.111999999999995,0)" xlink:href="#P"/><use transform="matrix(0.018,0,0,0.018,40.715999999999994,0)" xlink:href="#H"/><use transform="matrix(0.018,0,0,0.018,50.471999999999994,0)" xlink:href="#y"/><use transform="matrix(0.018,0,0,0.018,57.726,0)" xlink:href="#Q"/></g></defs></g></svg>